<?xml version="1.0" standalone="no"?>
<!DOCTYPE svg PUBLIC "-//W3C//DTD SVG 20010904//EN"
 "http://www.w3.org/TR/2001/REC-SVG-20010904/DTD/svg10.dtd">
<svg version="1.0" xmlns="http://www.w3.org/2000/svg"
 width="128.000000pt" height="128.000000pt" viewBox="0 0 128.000000 128.000000"
 preserveAspectRatio="xMidYMid meet">
<metadata>
Created by potrace 1.14, written by Peter Selinger 2001-2017
</metadata>
<g transform="translate(0.000000,128.000000) scale(0.100000,-0.100000)"
fill="#000000" stroke="none">
<path d="M373 1160 c-89 -19 -181 -88 -222 -167 -35 -70 -43 -147 -39 -394 3
-227 4 -236 29 -289 36 -77 77 -121 151 -161 l63 -34 285 0 c273 0 287 1 332
22 67 31 129 92 164 160 l29 58 0 285 0 285 -34 63 c-40 74 -84 115 -161 151
-54 26 -58 26 -305 28 -137 1 -269 -2 -292 -7z m581 -80 c27 -14 66 -44 87
-68 63 -72 69 -104 69 -373 0 -277 -8 -313 -83 -387 -76 -75 -111 -82 -387
-82 -278 0 -314 8 -387 82 -73 75 -77 92 -81 355 -2 150 0 252 8 288 20 96
108 185 202 205 24 5 151 8 283 7 234 -2 241 -3 289 -27z"/>
<path d="M383 962 c-12 -2 -36 -19 -52 -37 -91 -104 -52 -276 68 -292 36 -5
44 -2 75 29 46 46 62 106 46 176 -18 83 -75 134 -137 124z"/>
<path d="M805 948 c-75 -59 -87 -206 -23 -275 81 -86 201 -16 201 117 0 135
-97 222 -178 158z"/>
<path d="M403 563 c-19 -7 -15 -64 6 -99 67 -109 232 -150 356 -88 93 46 153
142 113 182 -22 22 -47 12 -72 -27 -83 -130 -242 -132 -329 -3 -26 39 -44 48
-74 35z"/>
</g>
</svg>
